<svg xmlns="http://www.w3.org/2000/svg" viewBox="0 0 32 32"><path fill="#595bd4" d="M6.762 0A6.748 6.748 0 0 0 0 6.764v18.474A6.746 6.746 0 0 0 6.762 32h18.476A6.746 6.746 0 0 0 32 25.238V6.764A6.748 6.748 0 0 0 25.238 0H6.762zM18.5 8a.5.5 0 0 1 .5.531V10h3V8.531A.5.5 0 0 1 22.5 8a.5.5 0 0 1 .5.531V10h1.5a.5.5 0 0 1 .5.5v6a.5.5 0 0 1-.5.5h-3.813c-.08-.342-.093-.713-.375-1H24v-5h-1.375a.5.5 0 0 1-.25 0h-3.75a.5.5 0 0 1-.219 0H17v1.688s-.582-.386-1-.376V10.5a.5.5 0 0 1 .5-.5H18V8.531A.5.5 0 0 1 18.5 8zm-.5 4h1v1h-1v-1zm2 0h1v1h-1v-1zm2 0h1v1h-1v-1zm-7.5 1c3.028 0 5.5 2.472 5.5 5.5S17.528 24 14.5 24A5.512 5.512 0 0 1 9 18.5c0-3.028 2.472-5.5 5.5-5.5zm0 1a4.495 4.495 0 0 0-4.5 4.5c0 2.489 2.011 4.5 4.5 4.5s4.5-2.011 4.5-4.5-2.011-4.5-4.5-4.5zm5.5 0h1v1h-1v-1zm2 0h1v1h-1v-1zm-7.563.656a.5.5 0 0 1 .063 0 .5.5 0 0 1 .5.531V18h2.5a.5.5 0 1 1 0 1h-3a.5.5 0 0 1-.5-.5v-3.313a.5.5 0 0 1 .438-.53z" class="color000000 svgShape"/></svg>