<svg xmlns="http://www.w3.org/2000/svg" xmlns:svgjs="http://svgjs.com/svgjs" xmlns:xlink="http://www.w3.org/1999/xlink" width="288" height="288"><svg xmlns="http://www.w3.org/2000/svg" width="288" height="288" data-name="Layer 1" viewBox="0 0 512 512"><g fill="#0889ea" class="color000 svgShape" data-name=" Group "><path d="M224.846,359.416a9,9,0,0,1-14.056-3.2L194.163,318.79,181.922,322l-47.46,115.226a2,2,0,0,0,2.464,2.664l38.391-12.433a18.084,18.084,0,0,1,21.724,9.234l16.815,34.473a2,2,0,0,0,3.65-.121l30.432-74.534L230.717,354.42Z" class="color000 svgShape" data-name=" Path "/><path d="M331.464,322.359l-13.627-3.569-16.625,37.426a9.045,9.045,0,0,1-6.228,5.121,8.919,8.919,0,0,1-1.981.222,9.045,9.045,0,0,1-5.847-2.141L256,332.905l-12.46,10.6,50.952,124.527a1.889,1.889,0,0,0,1.788,1.248,1.91,1.91,0,0,0,1.864-1.122l16.815-34.473a18.08,18.08,0,0,1,21.724-9.233l38.39,12.431a2,2,0,0,0,2.465-2.663Z" class="color000 svgShape" data-name=" Path 2"/><path d="M256,102.249a88.19,88.19,0,1,0,88.189,88.191v0A88.288,88.288,0,0,0,256,102.249Zm0,83.112a35.525,35.525,0,0,1,7,70.354V265a8,8,0,0,1-16,0v-9.747a35.585,35.585,0,0,1-26.524-34.366,8,8,0,0,1,16,0A19.524,19.524,0,1,0,256,201.361a35.525,35.525,0,0,1-9-69.89V120a8,8,0,0,1,16,0v11.009a35.582,35.582,0,0,1,28.524,34.828,8,8,0,0,1-16,0A19.524,19.524,0,1,0,256,185.361Z" class="color000 svgShape" data-name=" Compound Path "/><path d="M380.567,212.943l30.007-22.536-30-22.467a8.967,8.967,0,0,1-2.593-11.35l17.269-33.243-36.75-7.153a8.965,8.965,0,0,1-7.276-9.1L352.4,69.573l-36.262,9.5a8.977,8.977,0,0,1-10.5-5.046L290.4,39.717l-28.559,24.3a8.964,8.964,0,0,1-11.667,0l-28.558-24.3-15.239,34.3a8.977,8.977,0,0,1-10.5,5.053l-36.267-9.5,1.171,37.506a8.969,8.969,0,0,1-7.275,9.115l-36.75,7.153,17.268,33.241a8.967,8.967,0,0,1-2.6,11.354L101.427,190.4l30.007,22.536a8.972,8.972,0,0,1,2.589,11.33l-17.276,33.26,36.749,7.153a8.965,8.965,0,0,1,7.276,9.1L159.6,311.3l36.262-9.5a8.974,8.974,0,0,1,10.5,5.046l15.242,34.31,28.559-24.3a8.964,8.964,0,0,1,11.667,0l28.558,24.3,15.239-34.3a8.976,8.976,0,0,1,10.5-5.053l36.267,9.5-1.166-37.5a8.969,8.969,0,0,1,7.275-9.115l36.75-7.153L377.984,224.29A8.98,8.98,0,0,1,380.567,212.943ZM256,294.628A104.19,104.19,0,1,1,360.189,190.437h0A104.307,104.307,0,0,1,256,294.628Z" class="color000 svgShape" data-name=" Compound Path 2"/></g></svg></svg>