<svg xmlns="http://www.w3.org/2000/svg" xmlns:svgjs="http://svgjs.com/svgjs" xmlns:xlink="http://www.w3.org/1999/xlink" width="288" height="288"><svg xmlns="http://www.w3.org/2000/svg" width="288" height="288" viewBox="0 0 32 32"><path fill="#fff" d="M16 13.09a8 8 0 0 1 0 13.83 8 8 0 0 1 0-13.83Z" class="colorf2f2f2 svgShape"/><path fill="#9a9a9a" d="M24 12a8 8 0 1 0-8 8 8 8 0 0 0 8-8ZM16 2A10 10 0 1 1 6 12 10 10 0 0 1 16 2Z" class="color6e6e6e svgShape"/><path fill="#1b7cca" d="M20 20a7.94 7.94 0 0 0-4-6.91 8 8 0 0 0 0 13.83A8 8 0 0 0 20 20Zm10 0a10 10 0 0 1-10 10 9.92 9.92 0 0 1-4-.84 9.92 9.92 0 0 1-4 .84 10 10 0 0 1-1.11-19.94 1 1 0 0 1 .22 2 8 8 0 1 0 2.65 15.74A10 10 0 0 1 15.55 11H16.44a10 10 0 0 1 1.8 16.76A7.91 7.91 0 0 0 20 28a8 8 0 0 0 .89-15.95 1 1 0 0 1-.89-1.11 1 1 0 0 1 1.1-.88A10 10 0 0 1 30 20Z" class="color1c6ea5 svgShape"/></svg></svg>